# xmcd CD database file generated by Grip 3.2.0
# 
# Track frame offsets:
#       150
#       20494
#       37419
#       53906
#       72593
#       88938
#       109970
#       133731
#       149562
#       164901
#       181952
#       198752
#       222912
#       247255
#       265504
# 
# Disc length: 3784 seconds
# 
# Revision: 3
# Processed by: cddbd v1.5.1PL0 Copyright (c) Steve Scherf et al.
# Submitted via: Grip 3.2.0
# 
DISCID=f60ec60f
DTITLE=Various Artist - Its the Best Dance Anthems Disc 2
DYEAR=1900
DGENRE=Dance
TTITLE0=N-Trance - Paradise City
TTITLE1=Rosie Gains - Closer Than Close
TTITLE2=Mr President - CoCo Jamboo
TTITLE3=Zhane - Hey Mr DJ
TTITLE4=Real McCoy - Another Night
TTITLE5=Allure - All Cried Out
TTITLE6=London Beat - I've Been Thinking About You
TTITLE7=Sash - Stay
TTITLE8=Da Hool - Bora Bora
TTITLE9=Burnette - Beachball
TTITLE10=Future Funk - Music Takes U High
TTITLE11=C&C Music Factory - Things That Make You Go Hmmm
TTITLE12=Amii Stewart - Knock On Wood
TTITLE13=Newton - Sometimes When We Touch
TTITLE14=Dr. Alban - It's My Life
EXTD=
EXTT0=
EXTT1=
EXTT2=
EXTT3=
EXTT4=
EXTT5=
EXTT6=
EXTT7=
EXTT8=
EXTT9=
EXTT10=
EXTT11=
EXTT12=
EXTT13=
EXTT14=
PLAYORDER=
